<svg width="24" height="24" viewBox="0 0 24 24" fill="none" xmlns="http://www.w3.org/2000/svg">
<path d="M11.9906 7.38748C11.9984 7.42445 12.0015 7.46224 12 7.49998C11.9989 8.46394 11.661 9.39723 11.0447 10.1385C10.4285 10.8797 9.57256 11.3823 8.625 11.5594V21C8.625 21.1989 8.54598 21.3897 8.40533 21.5303C8.26468 21.671 8.07391 21.75 7.875 21.75C7.67609 21.75 7.48532 21.671 7.34467 21.5303C7.20402 21.3897 7.125 21.1989 7.125 21V11.5594C6.17744 11.3823 5.32152 10.8797 4.70525 10.1385C4.08898 9.39723 3.75109 8.46394 3.75 7.49998C3.74849 7.46224 3.75164 7.42445 3.75938 7.38748L4.50938 2.88748C4.52538 2.79022 4.56039 2.69706 4.61239 2.61333C4.6644 2.5296 4.73239 2.45693 4.81248 2.39947C4.89257 2.34202 4.98319 2.3009 5.07917 2.27847C5.17516 2.25603 5.27462 2.25272 5.37188 2.26873C5.46914 2.28473 5.56229 2.31974 5.64602 2.37174C5.72976 2.42375 5.80242 2.49174 5.85988 2.57183C5.91734 2.65192 5.95846 2.74254 5.98089 2.83853C6.00332 2.93451 6.00663 3.03397 5.99063 3.13123L5.38125 6.74998H7.125V2.99998C7.125 2.80107 7.20402 2.6103 7.34467 2.46965C7.48532 2.329 7.67609 2.24998 7.875 2.24998C8.07391 2.24998 8.26468 2.329 8.40533 2.46965C8.54598 2.6103 8.625 2.80107 8.625 2.99998V6.74998H10.3687L9.75937 3.12185C9.74337 3.02459 9.74668 2.92513 9.76911 2.82915C9.79154 2.73317 9.83266 2.64255 9.89012 2.56246C10.0062 2.40071 10.1817 2.29168 10.3781 2.25935C10.5745 2.22703 10.7758 2.27406 10.9375 2.3901C11.0993 2.50614 11.2083 2.68168 11.2406 2.8781L11.9906 7.37811V7.38748ZM19.5562 2.38123C19.4566 2.31485 19.3429 2.27265 19.224 2.258C19.1052 2.24335 18.9846 2.25666 18.8719 2.29685C16.9219 2.99998 15.3562 5.38123 14.2312 9.35623C13.7271 11.1798 13.3574 13.0379 13.125 14.9156C13.1143 15.0202 13.1255 15.1259 13.1577 15.2259C13.19 15.326 13.2427 15.4182 13.3125 15.4969C13.3837 15.5756 13.4704 15.6387 13.5672 15.6823C13.6641 15.7259 13.7688 15.7489 13.875 15.75H18.375V21C18.375 21.1989 18.454 21.3897 18.5947 21.5303C18.7353 21.671 18.9261 21.75 19.125 21.75C19.3239 21.75 19.5147 21.671 19.6553 21.5303C19.796 21.3897 19.875 21.1989 19.875 21V2.99998C19.8743 2.87904 19.845 2.75998 19.7897 2.65246C19.7343 2.54495 19.6543 2.45202 19.5562 2.38123V2.38123Z" fill="#7B868C"/>
</svg>
