<svg width="24" height="24" viewBox="0 0 24 24" fill="none" xmlns="http://www.w3.org/2000/svg">
<path d="M4.08004 2.88C3.76177 2.88 3.45654 2.999 3.23149 3.2108C3.00644 3.42261 2.88 3.70988 2.88 4.00942C2.88 4.30896 3.00644 4.59623 3.23149 4.80803C3.45654 5.01984 3.76177 5.13883 4.08004 5.13883H5.54409L5.91011 6.51897C5.91374 6.53486 5.91774 6.55068 5.92211 6.5664L7.55176 12.6991L6.48013 13.7065C4.96807 15.1296 6.03851 17.5624 8.17698 17.5624H18.4805C18.7988 17.5624 19.104 17.4434 19.3291 17.2316C19.5541 17.0198 19.6806 16.7325 19.6806 16.4329C19.6806 16.1334 19.5541 15.8461 19.3291 15.6343C19.104 15.4225 18.7988 15.3035 18.4805 15.3035H8.17698L9.37702 14.1741H17.2805C17.5033 14.174 17.7217 14.1155 17.9111 14.0052C18.1006 13.8949 18.2537 13.7371 18.3533 13.5496L21.9534 6.77309C22.0448 6.60094 22.088 6.40967 22.0788 6.21742C22.0696 6.02518 22.0083 5.83833 21.9009 5.67462C21.7934 5.5109 21.6433 5.37574 21.4647 5.28197C21.2861 5.18821 21.0851 5.13893 20.8806 5.13883H8.01618L7.64416 3.73497C7.57916 3.49074 7.4293 3.27395 7.2184 3.11905C7.0075 2.96415 6.74765 2.88001 6.48013 2.88H4.08004ZM19.6806 20.3859C19.6806 20.8352 19.4909 21.2661 19.1533 21.5838C18.8158 21.9015 18.3579 22.08 17.8805 22.08C17.4031 22.08 16.9452 21.9015 16.6077 21.5838C16.2701 21.2661 16.0804 20.8352 16.0804 20.3859C16.0804 19.9366 16.2701 19.5057 16.6077 19.188C16.9452 18.8703 17.4031 18.6918 17.8805 18.6918C18.3579 18.6918 18.8158 18.8703 19.1533 19.188C19.4909 19.5057 19.6806 19.9366 19.6806 20.3859ZM8.28019 22.08C8.75759 22.08 9.21544 21.9015 9.55302 21.5838C9.8906 21.2661 10.0802 20.8352 10.0802 20.3859C10.0802 19.9366 9.8906 19.5057 9.55302 19.188C9.21544 18.8703 8.75759 18.6918 8.28019 18.6918C7.80278 18.6918 7.34493 18.8703 7.00735 19.188C6.66977 19.5057 6.48013 19.9366 6.48013 20.3859C6.48013 20.8352 6.66977 21.2661 7.00735 21.5838C7.34493 21.9015 7.80278 22.08 8.28019 22.08V22.08Z" fill="#7B868C"/>
</svg>
